<svg width="33" height="33" viewBox="0 0 33 33" fill="none" xmlns="http://www.w3.org/2000/svg">
<path fill-rule="evenodd" clip-rule="evenodd" d="M15.987 26.329C12.5968 26.1217 9.35049 24.0481 7.77225 21.0177C6.30761 18.2055 6.33065 14.6727 7.82761 11.882C9.50339 8.75815 12.8276 6.85318 16.507 6.68934C16.507 6.68934 17.4213 6.63078 18.0314 6.28422C19.842 5.25542 20.1125 2.21862 18.1665 0.978617C17.6427 0.644857 17.0174 0.490285 16.3941 0.492205C10.2471 0.551085 4.30313 4.39238 1.80456 10.0913C-0.295279 14.8813 0.141521 20.6904 2.99432 25.1322C5.26473 28.667 8.96745 31.2519 13.075 32.1457C18.6961 33.369 24.9223 31.29 28.6798 26.9063C32.4052 22.5594 33.5435 16.1338 31.4571 10.7396C30.2609 7.6471 28.1415 4.82694 25.3057 3.1303C25.1576 3.04166 25.0023 2.9687 24.8423 2.91046C27.6952 5.35366 29.5038 8.97895 29.5038 13.0225C29.5038 20.3723 23.529 26.339 16.1694 26.339C16.1093 26.339 16.1031 26.3361 15.987 26.329Z" fill="#1292EE"/>
</svg>
