<svg width="100" height="32" fill="none" xmlns="http://www.w3.org/2000/svg"><path d="M15.495 25.837c-3.39-.207-6.637-2.281-8.215-5.311-1.465-2.813-1.442-6.345.055-9.136 1.676-3.124 5-5.029 8.68-5.193 0 0 .914-.058 1.524-.405 1.81-1.029 2.081-4.066.135-5.306-.523-.333-1.149-.488-1.772-.486C9.755.059 3.81 3.9 1.312 9.6c-2.1 4.79-1.663 10.598 1.19 15.04 2.27 3.535 5.973 6.12 10.08 7.014 5.622 1.223 11.848-.856 15.606-5.24 3.725-4.347 4.863-10.772 2.777-16.167-1.196-3.092-3.316-5.912-6.151-7.609a2.698 2.698 0 00-.464-.22 13.282 13.282 0 014.662 10.112c0 7.35-5.975 13.317-13.335 13.317-.06 0-.066-.003-.182-.01zM36.371 22V10.12h8.023v2.246h-5.348v2.331h4.748v2.194h-4.748v2.863h5.743V22H36.37zm13.07-2.177c.127.011.27.023.43.034h.6c1.337 0 2.325-.337 2.965-1.011.652-.675.977-1.606.977-2.795 0-1.245-.308-2.188-.925-2.828-.617-.64-1.595-.96-2.932-.96-.183 0-.371.006-.566.017-.194 0-.377.011-.548.034v7.509zm7.732-3.772c0 1.029-.16 1.926-.48 2.692-.32.766-.777 1.4-1.371 1.903-.583.503-1.297.88-2.143 1.131-.846.252-1.794.377-2.846.377-.48 0-1.04-.023-1.68-.068a12.893 12.893 0 01-1.885-.24V10.274a14.712 14.712 0 011.92-.223 26.172 26.172 0 011.731-.068c1.017 0 1.937.114 2.76.343.834.228 1.549.588 2.143 1.08a4.8 4.8 0 011.371 1.885c.32.766.48 1.686.48 2.76zm1.977-5.314l2.554-.411v2.657h3.069v2.126h-3.069v3.171c0 .537.092.966.275 1.286.194.32.577.48 1.148.48.274 0 .554-.023.84-.069.297-.057.566-.131.806-.223l.36 1.989a7.282 7.282 0 01-1.029.326c-.377.091-.84.137-1.388.137-.697 0-1.275-.092-1.732-.275-.457-.194-.823-.457-1.097-.788a3.093 3.093 0 01-.583-1.234 7.62 7.62 0 01-.154-1.595v-7.577zm6.94 6.823c0-.8.12-1.497.36-2.091.25-.606.577-1.109.977-1.509.4-.4.857-.703 1.371-.909a4.387 4.387 0 011.611-.308c1.28 0 2.292.394 3.035 1.183.743.777 1.114 1.925 1.114 3.445 0 .149-.006.315-.017.498-.011.171-.023.325-.034.462h-5.795c.057.526.303.943.737 1.252.435.308 1.018.463 1.75.463.468 0 .925-.04 1.37-.12.458-.092.83-.2 1.115-.326l.343 2.074a3.53 3.53 0 01-.549.206 5.984 5.984 0 01-.771.171 9.161 9.161 0 01-1.852.189c-.811 0-1.52-.12-2.126-.36a4.285 4.285 0 01-1.49-.977 4.149 4.149 0 01-.875-1.492 6.041 6.041 0 01-.275-1.851zm6-.977a2.392 2.392 0 00-.12-.634 1.414 1.414 0 00-.292-.549 1.437 1.437 0 00-.497-.394c-.194-.103-.44-.155-.737-.155-.286 0-.532.052-.737.155a1.43 1.43 0 00-.515.377c-.137.16-.245.348-.325.566-.069.205-.12.417-.155.634h3.377zm7.885 3.634c.251 0 .491-.006.72-.017.229-.011.411-.029.549-.051V18.21a4.717 4.717 0 00-.463-.068 5.144 5.144 0 00-.566-.034c-.24 0-.469.017-.686.051a1.617 1.617 0 00-.548.154.957.957 0 00-.377.326.908.908 0 00-.138.514c0 .4.132.68.395.84.274.149.645.223 1.114.223zm-.206-7.474c.754 0 1.383.086 1.886.257.503.171.903.417 1.2.737.308.32.526.709.651 1.166.126.457.189.966.189 1.526v5.314c-.366.08-.874.171-1.526.274-.651.114-1.44.172-2.365.172a7.627 7.627 0 01-1.595-.155 3.542 3.542 0 01-1.217-.497 2.378 2.378 0 01-.788-.926c-.183-.377-.275-.84-.275-1.388 0-.526.103-.972.309-1.337.217-.366.503-.657.857-.875.354-.217.76-.371 1.217-.462a6.46 6.46 0 011.423-.155c.331 0 .623.017.874.052.263.023.475.057.635.103v-.24c0-.435-.132-.783-.395-1.046s-.72-.394-1.371-.394c-.434 0-.863.034-1.286.102a5.174 5.174 0 00-1.097.258l-.326-2.058c.149-.045.332-.091.549-.137a6.51 6.51 0 01.737-.137c.263-.046.537-.08.823-.103.297-.034.594-.051.891-.051zm11.19 4.474c0-.823-.109-1.406-.326-1.748-.206-.343-.566-.515-1.08-.515-.16 0-.325.012-.497.035a6.602 6.602 0 00-.497.051V22h-2.554v-8.709c.217-.057.468-.114.754-.171.297-.069.606-.126.926-.171a9.746 9.746 0 011.011-.12c.343-.035.68-.052 1.011-.052.652 0 1.178.086 1.578.257.411.16.748.355 1.011.583A4.414 4.414 0 0193.547 13c.48-.149.92-.223 1.32-.223.72 0 1.31.103 1.766.309.469.194.84.474 1.115.84.274.365.462.8.565 1.303.103.502.154 1.062.154 1.68V22h-2.554v-4.783c0-.823-.108-1.406-.325-1.748-.206-.343-.566-.515-1.08-.515a2.4 2.4 0 00-.583.103c-.24.069-.44.154-.6.257.08.263.131.543.154.84.023.286.034.595.034.926V22H90.96v-4.783z" fill="#EFF3F5"/></svg>
