<?xml version="1.0" encoding="UTF-8"?>
<svg xmlns="http://www.w3.org/2000/svg" xmlns:xlink="http://www.w3.org/1999/xlink" width="100px" height="100px" viewBox="0 0 100 100" version="1.1">
<g id="surface1">
<path style=" stroke:none;fill-rule:nonzero;fill:rgb(0%,0%,0%);fill-opacity:1;" d="M 94.46875 58.175781 C 94.359375 58.054688 94.148438 57.976562 93.996094 57.929688 C 93.875 57.894531 93.746094 57.878906 93.625 57.847656 C 93.3125 57.765625 93.007812 57.648438 92.71875 57.503906 C 92.527344 57.410156 92.34375 57.304688 92.167969 57.183594 C 92.078125 57.125 91.992188 57.0625 91.90625 56.996094 C 91.863281 56.964844 91.824219 56.933594 91.78125 56.898438 C 91.746094 56.871094 91.683594 56.835938 91.660156 56.796875 C 91.132812 55.949219 89.9375 55.960938 89.265625 55.253906 C 88.644531 54.6875 87.917969 54.355469 87.175781 53.980469 C 86.566406 53.65625 86.011719 53.238281 85.464844 52.824219 C 84.96875 52.523438 84.398438 52.34375 83.890625 52.078125 C 83.320312 51.160156 82.394531 50.632812 81.433594 50.222656 C 80.632812 49.496094 79.945312 48.636719 79.160156 47.886719 C 78.761719 47.3125 78.199219 46.847656 77.644531 46.421875 C 76.839844 45.894531 75.992188 45.421875 75.234375 44.816406 C 74.785156 44.414062 74.410156 43.9375 74.011719 43.476562 C 73.605469 43 73.097656 42.625 72.703125 42.136719 C 72.105469 41.359375 71.679688 40.464844 71.015625 39.734375 C 70.9375 39.628906 70.65625 39.386719 70.410156 39.277344 C 69.746094 38.800781 68.820312 41.152344 68.429688 41.605469 C 68.007812 42.246094 67.382812 42.714844 66.953125 43.339844 C 66.65625 43.851562 66.578125 44.453125 66.339844 44.984375 C 66.199219 45.332031 65.828125 45.449219 65.539062 45.636719 C 64.777344 46.023438 64.527344 46.851562 64.1875 47.566406 C 63.4375 48.035156 62.328125 48.457031 61.511719 47.925781 C 61.289062 47.808594 61.066406 47.550781 60.832031 47.414062 C 59.511719 46.585938 58.050781 46.023438 56.714844 45.238281 C 56.078125 44.816406 55.855469 44.03125 55.5625 43.367188 C 55.085938 42.3125 54.398438 41.179688 53.214844 40.855469 C 52.824219 40.75 52.453125 40.574219 52.152344 40.304688 C 51.339844 39.46875 51.21875 39.296875 50.238281 40.066406 C 49.398438 40.6875 48.40625 41.351562 47.679688 42.035156 C 47.039062 42.5625 46.273438 43.113281 45.421875 43.21875 C 43.34375 43.214844 42.257812 43.449219 40.683594 44.90625 C 40.277344 45.363281 39.691406 45.378906 39.125 45.429688 C 37.230469 45.675781 37.105469 46.414062 35.144531 45.214844 C 34.332031 44.375 33.277344 43.871094 32.199219 43.46875 C 31.886719 43.328125 31.472656 43.300781 31.339844 42.9375 C 31.132812 42.46875 30.972656 41.796875 30.355469 41.757812 C 29.695312 41.734375 29.050781 42.050781 28.59375 42.519531 C 28.011719 43.027344 27.742188 43.757812 27.289062 44.359375 C 27.039062 44.671875 26.664062 44.832031 26.320312 45.019531 C 24.96875 45.667969 24.21875 47.03125 23.023438 47.882812 C 21.863281 48.871094 20.644531 48.808594 19.460938 49.117188 C 19.410156 49.109375 19.332031 49.121094 19.285156 49.164062 C 18.832031 49.296875 18.386719 49.492188 17.949219 49.832031 C 17.25 50.433594 16.511719 51 15.859375 51.652344 C 15.488281 52.011719 15.105469 52.359375 14.683594 52.664062 C 13.933594 53.40625 13.148438 54.152344 12.121094 54.492188 C 11 54.648438 9.816406 54.398438 8.742188 54.878906 C 7.734375 55.167969 6.964844 55.925781 5.988281 56.261719 C 5.6875 56.320312 5.433594 56.320312 5.492188 56.714844 C 5.527344 56.863281 5.660156 56.960938 5.804688 56.925781 C 6.5625 56.84375 7.171875 56.324219 7.8125 55.953125 C 8.324219 55.6875 8.859375 55.46875 9.414062 55.3125 C 10.382812 55.019531 11.421875 55.335938 12.386719 55.054688 C 13.382812 54.664062 14.203125 53.988281 14.925781 53.222656 C 15.566406 52.773438 16.050781 52.148438 16.785156 51.867188 C 17.730469 51.453125 17.382812 52.0625 18.109375 52.269531 C 18.355469 52.332031 18.496094 52.433594 18.304688 52.679688 C 18.074219 52.972656 17.929688 53.324219 17.710938 53.621094 C 17.394531 53.894531 17.285156 54.304688 17.058594 54.636719 C 16.191406 55.261719 16.414062 55.882812 16.929688 56.453125 C 17.070312 56.605469 17.265625 56.71875 17.339844 56.925781 C 17.429688 57.207031 17.394531 57.542969 17.550781 57.796875 C 17.621094 58.066406 17.859375 58.34375 18.15625 58.34375 C 18.199219 58.058594 18.105469 57.78125 18.03125 57.507812 C 18.042969 56.574219 17.898438 56.503906 17.222656 55.914062 C 17.152344 55.761719 17.046875 55.601562 17.066406 55.429688 C 17.246094 55.21875 17.503906 55.089844 17.640625 54.847656 C 17.707031 54.710938 17.710938 54.539062 17.886719 54.492188 C 18.285156 54.382812 18.59375 54.046875 18.683594 53.640625 C 18.761719 53.382812 18.765625 53.042969 19.035156 52.902344 C 19.734375 52.789062 20 53.292969 20.359375 53.78125 C 20.703125 54.109375 21.527344 54.980469 22.015625 54.644531 C 21.84375 53.972656 21.023438 53.792969 20.664062 53.246094 C 20.421875 52.90625 20.164062 52.582031 19.839844 52.3125 C 19.605469 52.019531 19.457031 51.660156 19.152344 51.429688 C 18.851562 51.191406 18.589844 50.742188 18.816406 50.371094 C 19.800781 49.222656 21.566406 49.691406 22.726562 48.808594 C 24.027344 48.109375 24.859375 46.703125 26.042969 45.875 L 26.058594 45.871094 L 26.046875 45.890625 L 26.074219 45.871094 L 26.082031 45.875 L 26.09375 45.863281 L 26.097656 45.863281 L 26.128906 45.867188 C 26.152344 45.875 26.171875 45.890625 26.1875 45.917969 C 26.203125 45.945312 26.210938 45.980469 26.210938 46.015625 C 26.210938 46.035156 26.207031 46.050781 26.203125 46.066406 C 26.183594 46.15625 26.113281 46.246094 26.050781 46.347656 C 25.964844 46.492188 25.910156 46.652344 25.890625 46.820312 C 25.875 46.964844 25.886719 47.101562 25.855469 47.21875 C 25.828125 47.347656 25.753906 47.464844 25.652344 47.546875 C 25.570312 47.609375 25.464844 47.660156 25.363281 47.726562 C 25.160156 47.863281 25.019531 48.054688 24.894531 48.25 C 24.007812 48.796875 23.121094 49.316406 22.789062 50.417969 C 22.726562 50.519531 22.605469 50.5625 22.5625 50.679688 C 22.5 50.832031 22.554688 51.042969 22.722656 51.097656 C 23.179688 51.144531 23.335938 50.519531 23.484375 50.1875 C 23.582031 49.976562 23.746094 49.808594 23.910156 49.648438 C 24.328125 49.296875 24.796875 49.003906 25.25 48.707031 C 25.449219 48.605469 25.648438 48.492188 25.832031 48.367188 C 25.894531 48.34375 25.960938 48.316406 26.023438 48.296875 C 26.214844 48.234375 26.417969 48.191406 26.613281 48.191406 C 26.738281 48.191406 26.863281 48.207031 26.980469 48.246094 C 27.066406 48.273438 27.144531 48.3125 27.203125 48.367188 C 27.289062 48.445312 27.34375 48.566406 27.363281 48.691406 C 27.371094 48.738281 27.375 48.785156 27.375 48.832031 C 27.375 48.90625 27.363281 48.980469 27.347656 49.050781 C 27.335938 49.09375 27.320312 49.136719 27.300781 49.179688 C 27 49.648438 27.148438 50.238281 27.203125 50.765625 C 27.210938 51.175781 26.910156 51.507812 26.699219 51.835938 C 26.179688 52.296875 26.09375 53.035156 25.789062 53.625 C 25.285156 54.09375 24.574219 54.308594 24.019531 54.726562 C 23.480469 55.007812 23.066406 55.445312 22.777344 55.980469 C 22.414062 56.535156 21.988281 57.042969 21.492188 57.488281 C 21.363281 57.605469 20.867188 58.128906 21.03125 58.324219 C 21.320312 58.660156 22.144531 57.636719 22.308594 57.496094 C 22.785156 57.019531 23.121094 56.441406 23.507812 55.894531 C 23.773438 55.707031 24.09375 55.582031 24.417969 55.5 C 24.871094 55.382812 25.34375 55.332031 25.8125 55.21875 C 26.339844 55.085938 26.847656 54.875 27.363281 54.878906 C 27.390625 54.878906 27.421875 54.878906 27.449219 54.878906 C 27.851562 54.898438 28.246094 55.050781 28.667969 55.121094 C 28.964844 55.167969 29.257812 55.171875 29.535156 55.222656 C 30.09375 55.320312 30.601562 55.617188 31.015625 56.015625 C 31.117188 56.1875 31.214844 56.367188 31.324219 56.554688 C 32.226562 58.148438 34.320312 57.425781 35.941406 59.722656 L 35.945312 59.722656 C 36.328125 60.105469 36.847656 60.34375 37.378906 60.4375 C 37.558594 60.46875 39.140625 60.589844 38.785156 60.105469 C 38.683594 59.96875 38.457031 59.914062 38.300781 59.875 C 37.957031 59.78125 37.5625 59.765625 37.277344 59.527344 C 36.171875 58.621094 35.019531 57.777344 33.652344 57.3125 C 32.988281 57.042969 32.164062 56.9375 31.789062 56.253906 C 30.652344 53.910156 29.628906 53.992188 27.378906 53.277344 C 26.390625 52.605469 28.113281 52.050781 28.171875 51.355469 C 28.226562 51.1875 28.195312 51.003906 28.097656 50.855469 C 27.605469 50.222656 27.339844 49.648438 28.179688 49.171875 C 28.769531 48.851562 28.910156 49.277344 29.417969 49.519531 C 30.285156 50.015625 31.144531 50.523438 32.054688 50.949219 C 32.597656 51.191406 33.179688 51.339844 33.679688 51.679688 C 34.152344 51.988281 34.570312 52.453125 35.128906 52.605469 C 35.457031 52.65625 35.207031 52.25 35.125 52.132812 C 34.925781 51.859375 34.652344 51.707031 34.410156 51.488281 C 33.5 50.6875 32.269531 50.488281 31.253906 49.867188 C 30.691406 49.5625 30.140625 49.238281 29.585938 48.921875 C 29.429688 48.710938 29.304688 48.476562 29.175781 48.25 C 29.117188 48.082031 29.011719 47.929688 28.894531 47.804688 L 28.886719 47.796875 C 28.878906 47.78125 28.867188 47.765625 28.855469 47.753906 C 28.777344 47.652344 28.679688 47.570312 28.578125 47.496094 C 28.5 47.425781 28.421875 47.351562 28.355469 47.273438 C 28.132812 47 28.007812 46.648438 28.007812 46.296875 C 28.007812 46.21875 28.011719 46.144531 28.023438 46.070312 C 28.050781 45.90625 28.105469 45.746094 28.210938 45.632812 C 28.328125 45.511719 28.503906 45.449219 28.679688 45.449219 C 28.710938 45.449219 28.742188 45.453125 28.769531 45.457031 C 28.933594 45.476562 29.089844 45.542969 29.234375 45.640625 C 29.457031 45.90625 29.738281 46.117188 30.035156 46.296875 C 30.519531 46.675781 30.960938 47.117188 31.503906 47.417969 C 32.027344 47.824219 32.746094 47.828125 33.261719 48.230469 C 33.625 48.628906 33.910156 49.097656 34.304688 49.476562 C 35.023438 50.164062 35.75 50.863281 36.542969 51.46875 C 36.691406 51.578125 36.859375 51.6875 37.039062 51.738281 C 37.355469 51.820312 37.296875 51.503906 37.191406 51.328125 C 36.988281 51 36.632812 50.792969 36.347656 50.546875 C 36.136719 50.367188 35.921875 50.191406 35.710938 50.007812 C 35.644531 49.949219 35.121094 49.535156 35.148438 49.457031 C 35.183594 49.355469 35.261719 49.332031 35.355469 49.339844 C 36.125 49.796875 37.011719 49.957031 37.847656 50.226562 C 38.226562 50.410156 38.570312 50.78125 39.027344 50.628906 C 38.972656 49.878906 37.734375 49.507812 37.113281 49.378906 C 36.503906 49.214844 35.875 48.96875 35.332031 48.636719 C 34.648438 48.210938 33.894531 47.71875 33.140625 47.324219 C 32.726562 47.070312 32.238281 46.984375 31.808594 46.78125 C 31.488281 46.527344 31.171875 46.273438 30.855469 46.019531 C 30.699219 45.898438 30.546875 45.777344 30.410156 45.640625 C 30.28125 45.511719 30.160156 45.371094 30.042969 45.222656 C 29.875 45.011719 29.707031 44.796875 29.578125 44.566406 C 29.480469 44.390625 29.402344 44.191406 29.402344 44.007812 C 29.402344 43.921875 29.421875 43.839844 29.460938 43.761719 C 29.515625 43.648438 29.617188 43.558594 29.730469 43.484375 C 29.890625 43.378906 30.082031 43.304688 30.265625 43.304688 C 30.328125 43.304688 30.390625 43.3125 30.449219 43.332031 C 30.589844 43.371094 30.71875 43.460938 30.859375 43.550781 C 30.976562 43.625 31.105469 43.699219 31.25 43.726562 L 31.257812 43.734375 C 32.070312 44.160156 33.027344 44.324219 33.722656 44.960938 C 34.253906 45.445312 34.546875 46.136719 35.085938 46.613281 C 35.546875 47.035156 36.171875 47.179688 36.738281 47.40625 C 37.78125 47.816406 38.828125 48.277344 39.722656 48.957031 C 40.589844 49.628906 41.324219 50.484375 42.257812 51.070312 C 42.746094 51.378906 43.292969 51.644531 43.839844 51.835938 C 44.117188 51.929688 44.40625 52.003906 44.699219 52.03125 C 44.871094 52.046875 45.164062 52.152344 45.328125 52.082031 C 45.742188 51.898438 44.902344 51.550781 44.742188 51.496094 C 44.046875 51.242188 43.335938 51.011719 42.695312 50.632812 C 41.707031 49.964844 41.121094 48.871094 40.132812 48.199219 C 39.558594 47.738281 38.449219 47.496094 38.28125 46.707031 C 38.292969 45.914062 39.738281 46.238281 40.21875 45.910156 C 40.71875 45.75 41.058594 45.304688 41.476562 44.988281 C 42.96875 43.796875 43.777344 43.933594 44.871094 43.871094 L 44.878906 43.929688 C 45.132812 43.894531 45.382812 43.855469 45.632812 43.820312 C 45.851562 43.789062 46.074219 43.757812 46.289062 43.683594 C 46.558594 43.59375 46.796875 43.449219 47.035156 43.328125 C 47.273438 43.207031 47.527344 43.105469 47.78125 43.105469 L 47.785156 43.105469 C 47.875 43.105469 47.964844 43.121094 48.027344 43.164062 C 48.101562 43.21875 48.140625 43.3125 48.140625 43.417969 C 48.140625 43.484375 48.121094 43.558594 48.089844 43.617188 C 48.011719 43.777344 47.851562 43.894531 47.691406 44.011719 C 47.273438 44.3125 46.859375 44.621094 46.46875 44.957031 C 46 45.207031 45.609375 45.570312 45.171875 46.175781 C 44.769531 46.636719 44.507812 47.238281 43.941406 47.53125 C 43.710938 47.605469 43.574219 47.941406 43.789062 48.109375 C 44.25 48.386719 45.097656 47.277344 45.308594 46.914062 C 45.652344 46.675781 46.09375 46.792969 46.375 47.078125 C 46.585938 47.335938 46.882812 47.519531 47.21875 47.667969 C 47.378906 47.789062 47.566406 47.863281 47.753906 47.9375 C 47.988281 48.027344 48.21875 48.113281 48.375 48.277344 C 48.503906 48.410156 48.585938 48.589844 48.652344 48.777344 C 48.753906 49.058594 48.824219 49.355469 48.824219 49.648438 C 48.824219 49.761719 48.8125 49.871094 48.792969 49.976562 C 48.734375 50.265625 48.578125 50.542969 48.355469 50.71875 C 48.246094 50.734375 48.140625 50.746094 48.035156 50.777344 C 47.308594 50.960938 47 51.707031 46.496094 52.191406 C 46.199219 52.515625 45.296875 52.8125 45.410156 53.304688 C 45.46875 53.507812 45.722656 53.5 45.859375 53.390625 C 46.117188 53.1875 46.398438 53.011719 46.664062 52.808594 C 47.164062 52.453125 47.40625 51.839844 47.90625 51.488281 C 48.59375 51.199219 49.125 51.429688 49.601562 50.613281 C 49.90625 50.289062 50.707031 50.539062 50.566406 51.019531 C 50.398438 51.199219 50.132812 51.210938 49.917969 51.308594 C 49.667969 51.433594 49.613281 51.75 49.414062 51.921875 C 49.085938 52.007812 49.042969 52.398438 48.929688 52.667969 C 48.753906 52.980469 48.421875 53.164062 48.273438 53.5 C 48.222656 53.574219 48.144531 53.671875 48.214844 53.757812 C 48.304688 53.851562 48.414062 53.714844 48.5 53.675781 C 48.847656 53.398438 49.207031 52.832031 49.722656 53.050781 C 50.027344 53.214844 50.226562 53.621094 50.632812 53.550781 C 50.765625 53.546875 50.894531 53.578125 51.019531 53.621094 C 51.835938 54.046875 52.683594 54.394531 53.460938 54.894531 C 53.546875 54.949219 53.632812 54.878906 53.640625 54.789062 C 53.667969 54.457031 52.730469 53.9375 52.460938 53.746094 C 51.875 53.324219 50.203125 52.917969 49.96875 52.25 C 50.078125 51.847656 50.589844 51.667969 50.933594 51.488281 C 51.203125 51.441406 51.414062 51.261719 51.347656 50.96875 C 51.292969 50.789062 51.453125 50.785156 51.585938 50.808594 C 52.488281 51.089844 53.214844 51.753906 53.9375 52.347656 C 54.929688 53.066406 56.011719 53.671875 57.195312 54.007812 C 57.425781 54.050781 57.675781 54.011719 57.882812 53.894531 C 57.507812 53.316406 56.753906 53.273438 56.175781 52.984375 C 55.429688 52.640625 54.730469 52.199219 54.070312 51.710938 C 53.585938 51.308594 53.128906 50.851562 52.550781 50.582031 C 51.992188 50.222656 51.101562 50.136719 50.835938 49.460938 C 50.828125 49.398438 50.847656 49.316406 50.925781 49.332031 C 51.25 49.5625 51.664062 49.5625 52.035156 49.660156 C 52.585938 49.773438 53.089844 50.195312 53.667969 50.035156 C 53.375 49.144531 52.214844 49.167969 51.484375 48.875 C 50.984375 48.566406 50.582031 48.109375 50.050781 47.839844 C 49.113281 47.453125 47.925781 47.542969 47.207031 46.714844 C 46.875 46.28125 47 45.605469 47.386719 45.234375 C 48.074219 44.824219 48.878906 44.632812 49.609375 44.296875 C 50.320312 44.074219 51.042969 44.34375 51.558594 44.84375 C 52.203125 46.179688 52.851562 46.144531 54.039062 46.75 C 54.3125 46.929688 54.515625 47.191406 54.777344 47.386719 C 55.453125 47.828125 56.167969 48.210938 56.84375 48.648438 C 57.019531 48.742188 57.230469 48.792969 57.425781 48.796875 C 58.347656 48.8125 57.203125 48.199219 56.976562 48.03125 C 56.523438 47.734375 56.0625 47.4375 55.582031 47.1875 C 55.214844 47 54.902344 46.746094 54.613281 46.453125 C 54.214844 46.078125 53.683594 45.898438 53.183594 45.703125 C 52.570312 45.5 52.316406 45.027344 52.035156 44.574219 C 52 44.433594 51.964844 44.289062 51.914062 44.152344 C 51.761719 43.746094 51.46875 43.429688 51.304688 43.066406 C 51.195312 42.828125 51.136719 42.5625 51.136719 42.296875 C 51.136719 42.101562 51.167969 41.910156 51.226562 41.726562 C 51.277344 41.574219 51.351562 41.425781 51.453125 41.308594 C 51.554688 41.191406 51.675781 41.109375 51.820312 41.078125 C 51.863281 41.070312 51.90625 41.066406 51.953125 41.066406 C 52.058594 41.066406 52.167969 41.089844 52.285156 41.117188 C 53.273438 41.710938 53.867188 41.335938 54.824219 43.101562 C 55.308594 43.96875 55.492188 45.054688 56.328125 45.683594 C 57.378906 46.394531 58.597656 46.824219 59.695312 47.460938 C 60.179688 47.75 60.777344 47.960938 61.097656 48.453125 C 61.4375 49.179688 61.105469 49.898438 60.714844 50.550781 C 60.628906 50.660156 60.542969 50.769531 60.453125 50.875 C 60.253906 51.1875 59.480469 51.691406 59.890625 52.070312 C 60.203125 52.289062 60.378906 51.78125 60.582031 51.613281 C 61.234375 50.917969 61.6875 50.054688 62.4375 49.457031 C 62.742188 49.113281 63.128906 48.882812 63.53125 48.667969 C 63.972656 48.515625 64.425781 48.339844 64.648438 47.902344 C 64.925781 47.390625 65.039062 46.765625 65.511719 46.390625 C 67.019531 45.507812 66.730469 45.433594 67.300781 43.894531 C 67.632812 43.789062 67.902344 44.136719 67.996094 44.5 C 68.140625 45.328125 67.28125 45.332031 67.082031 46.019531 C 66.917969 46.785156 66.300781 46.519531 65.894531 47.007812 C 65.5 47.359375 65.386719 47.851562 65.261719 48.335938 C 64.921875 49.007812 64.574219 49.675781 64.046875 50.226562 C 63.753906 50.53125 63.382812 50.78125 63.15625 51.148438 C 62.703125 51.875 63.1875 51.902344 63.652344 51.40625 C 64.164062 50.953125 64.640625 50.457031 65.023438 49.890625 C 65.570312 49.195312 65.734375 48.210938 66.386719 47.617188 C 67.253906 46.9375 68.449219 47.335938 69.355469 47.722656 C 69.464844 47.832031 69.429688 47.972656 69.40625 48.109375 C 69.027344 48.511719 69.046875 49.019531 69.816406 49.4375 C 69.898438 49.457031 69.992188 49.476562 70.097656 49.492188 C 70.242188 49.53125 70.390625 49.566406 70.542969 49.59375 C 70.707031 49.621094 70.867188 49.640625 70.984375 49.722656 C 71.070312 49.785156 71.132812 49.882812 71.191406 49.988281 C 71.308594 50.195312 71.398438 50.425781 71.398438 50.640625 C 71.398438 50.714844 71.390625 50.789062 71.367188 50.859375 C 71.320312 50.996094 71.226562 51.121094 71.128906 51.25 C 70.859375 51.605469 70.605469 51.964844 70.359375 52.332031 C 70.070312 52.515625 69.714844 52.582031 69.410156 52.742188 C 68.550781 53.097656 67.542969 53.492188 67.148438 54.359375 C 66.558594 55.179688 66.34375 56.15625 65.992188 57.082031 C 65.347656 58.410156 64.363281 59.527344 63.273438 60.507812 C 63.207031 60.570312 63.097656 60.667969 63.199219 60.753906 C 63.605469 60.949219 64.433594 60.246094 64.730469 59.960938 C 66.085938 58.921875 66.726562 57.292969 67.308594 55.738281 C 67.765625 54.523438 68.699219 53.828125 69.789062 53.28125 C 70.761719 53.042969 71.246094 52.078125 72.035156 51.414062 C 72.761719 51.078125 73.535156 51.101562 74.296875 51.257812 C 74.734375 51.433594 75.1875 51.589844 75.664062 51.621094 C 75.886719 51.636719 76.875 51.664062 76.335938 51.300781 C 75.722656 50.953125 74.972656 50.941406 74.34375 50.625 C 73.863281 50.476562 73.394531 50.296875 73.09375 49.871094 C 72.492188 49.117188 71.445312 49.09375 70.585938 48.828125 C 70.417969 48.792969 70.234375 48.746094 70.132812 48.59375 C 70.089844 48.378906 70.367188 48.339844 70.519531 48.304688 C 70.925781 48.214844 71.3125 48.308594 71.691406 48.4375 C 72.097656 48.714844 72.566406 48.625 73.011719 48.707031 C 73.410156 48.78125 73.769531 49.140625 74.121094 49.320312 C 74.304688 49.410156 75.292969 49.695312 75.035156 49.195312 C 74.914062 48.957031 74.53125 48.808594 74.296875 48.710938 C 73.71875 48.394531 73.164062 47.957031 72.464844 48.042969 C 71.792969 47.878906 71.375 47.277344 70.757812 47.015625 C 70.253906 46.808594 69.6875 46.875 69.152344 46.789062 C 68.644531 46.515625 68.003906 46.375 68.320312 45.664062 C 69.351562 44.8125 68.148438 44.175781 68.464844 43.21875 C 68.71875 42.488281 69.523438 42.089844 69.941406 41.472656 C 70.097656 41.191406 70.289062 40.664062 70.632812 41.109375 C 71.316406 41.960938 71.167969 43.210938 70.738281 44.140625 C 70.601562 44.441406 69.933594 45.0625 70.144531 45.433594 C 70.410156 45.898438 70.753906 45.097656 70.859375 44.960938 C 71.144531 44.613281 71.300781 44.207031 71.433594 43.789062 C 72.441406 42.792969 73.726562 45.476562 74.65625 45.796875 C 75.570312 46.5625 76.839844 46.75 77.851562 47.351562 C 78.398438 47.859375 78.75 48.574219 79.335938 49.054688 C 79.75 49.398438 80.164062 49.753906 80.480469 50.195312 C 80.503906 50.265625 80.523438 50.339844 80.535156 50.414062 C 80.546875 50.496094 80.554688 50.585938 80.566406 50.675781 C 80.582031 50.769531 80.605469 50.863281 80.660156 50.945312 C 80.722656 51.042969 80.808594 51.105469 80.890625 51.160156 C 80.976562 51.214844 81.054688 51.261719 81.117188 51.324219 C 81.226562 51.433594 81.277344 51.585938 81.277344 51.746094 C 81.28125 51.914062 81.222656 52.089844 81.125 52.226562 C 80.972656 52.441406 80.726562 52.597656 80.535156 52.828125 C 80.382812 53.007812 80.285156 53.21875 80.167969 53.40625 C 80.023438 53.636719 79.847656 53.847656 79.640625 54.03125 C 79.464844 54.1875 79.261719 54.332031 79.070312 54.488281 C 78.929688 54.605469 78.796875 54.730469 78.6875 54.878906 C 78.621094 54.925781 78.554688 54.96875 78.484375 55.011719 C 77.984375 55.308594 77.359375 55.363281 76.855469 55.628906 C 76.753906 55.753906 76.875 55.90625 77.019531 55.890625 C 77.25 55.910156 77.433594 55.753906 77.652344 55.726562 C 78.304688 55.644531 78.925781 55.386719 79.398438 54.921875 C 79.578125 54.863281 79.789062 54.898438 79.945312 54.769531 C 80.097656 54.625 80.191406 54.433594 80.355469 54.296875 C 80.523438 54.242188 80.707031 54.230469 80.886719 54.261719 C 81.058594 54.34375 81.222656 54.496094 81.410156 54.53125 C 81.527344 54.53125 81.601562 54.394531 81.539062 54.261719 C 81.457031 54.058594 81.191406 53.953125 81.15625 53.734375 L 81.171875 53.714844 C 81.519531 53.554688 81.910156 53.601562 82.277344 53.644531 C 83.277344 53.988281 84.246094 53.355469 85.109375 54.242188 C 85.519531 54.519531 86.027344 54.53125 86.488281 54.671875 C 87.273438 54.921875 87.910156 55.480469 88.65625 55.820312 C 89.117188 56.011719 89.59375 56.164062 90.050781 56.363281 C 90.527344 56.570312 90.949219 56.894531 91.363281 57.207031 C 91.789062 57.527344 92.210938 57.859375 92.6875 58.101562 C 92.976562 58.25 93.292969 58.359375 93.613281 58.402344 C 93.777344 58.425781 93.941406 58.429688 94.105469 58.417969 C 94.214844 58.410156 94.664062 58.394531 94.46875 58.175781 Z M 94.46875 58.175781 "/>
</g>
</svg>
